#!OML:ASF I:\Actors\actors\Patient Classification 1\Patient 1\Session 1\Subject1.ASF
:FULLY-SPECIFIED
:DEGREES
1695
root 0.556312 17.5118 9.46936 11.9317 -2.85239 -9.72497
lowerback 1.53159 0.617652 6.90114
upperback -6.87059 1.36463 2.05921
thorax -8.00083 0.3018 -1.79781
lowerneck -16.3503 -3.70326 -1.84311
upperneck 25.5245 -6.98235 7.69051
head 11.3681 -2.4069 2.09997
rclavicle -1.15668e-014 -1.35174e-014
rhumerus 3.3444 32.3506 -83.809
rradius 69.2914
rwrist 26.1228
rhand -14.165 -20.6722
rfingers 7.12502
rthumb 11.97 -50.31
lclavicle -1.15668e-014 -1.35174e-014
lhumerus -5.93521 -21.6632 89.2219
lradius 70.548
lwrist 12.2384
lhand -28.121 -32.9763
lfingers 7.12502
lthumb -1.50278 -3.00182
rfemur -5.6978 24.6848 25.6671
rtibia 2.16977
rfoot -12.7563 -25.8964
rtoes 1.78609
lfemur 7.34732 -53.687 -13.0315
ltibia -5.23331
lfoot -45.9844 59.3029
ltoes 24.421
1696
root 0.559027 17.5016 9.46699 12.327 -3.15605 -9.78715
lowerback 1.23384 0.725205 6.92449
upperback -6.98693 1.49064 2.08794
thorax -7.9436 0.362886 -1.78573
lowerneck -16.0893 -3.77475 -1.90234
upperneck 25.2708 -7.00368 7.55454
head 11.2162 -2.45358 2.05691
rclavicle -4.84538e-015 1.55052e-014
rhumerus 3.41274 32.4994 -83.6923
rradius 69.6932
rwrist 27.3211
rhand -17.4241 -22.0018
rfingers 7.12502
rthumb 8.82609 -51.7972
lclavicle -4.84538e-015 1.55052e-014
lhumerus -7.14181 -21.3042 89.862
lradius 72.2822
lwrist 11.8297
lhand -29.6726 -33.6046
lfingers 7.12502
lthumb -3.00123 -3.64593
rfemur -6.31753 24.47 25.4586
rtibia 2.3435
rfoot -12.5892 -25.4007
rtoes 1.39426
lfemur 6.89758 -53.9078 -12.6622
ltibia -5.18764
lfoot -47.0991 59.4643
ltoes 25.0081
1697
root 0.553304 17.5118 9.47673 11.9636 -3.31759 -9.7426
lowerback 1.53262 0.713318 6.74092
upperback -6.87028 1.48877 2.13663
thorax -7.99396 0.376211 -1.63731
lowerneck -15.866 -3.78786 -1.90057
upperneck 25.0635 -6.95407 7.38374
head 11.0825 -2.46368 2.00211
rclavicle -6.44808e-015 1.90833e-014
rhumerus 3.57205 32.452 -83.6255
rradius 69.9626
rwrist 28.2599
rhand -20.1456 -23.6597
rfingers 7.12502
rthumb 6.19929 -53.549
lclavicle -6.44808e-015 1.90833e-014
lhumerus -8.49783 -20.9701 90.4869
lradius 74.0609
lwrist 11.4119
lhand -30.7478 -33.7194
lfingers 7.12502
lthumb -4.03964 -3.77797
rfemur -5.70881 24.8186 25.6379
rtibia 2.17515
rfoot -12.7237 -25.6061
rtoes 1.62154
lfemur 7.94569 -54.0717 -13.5481
ltibia -5.30554
lfoot -47.648 59.6167
ltoes 25.1543
1698
root 0.55261 17.5154 9.48192 11.8435 -3.52516 -9.71788
lowerback 1.63991 0.728139 6.66377
upperback -6.82973 1.51358 2.16706
thorax -8.01207 0.394613 -1.56619
lowerneck -15.6489 -3.75613 -1.85648
upperneck 24.8979 -6.84711 7.17887
head 10.9602 -2.44607 1.93706
rclavicle -2.17918e-014 -1.19271e-015
rhumerus 3.82497 32.249 -83.6306
rradius 70.06
rwrist 28.6706
rhand -22.3835 -25.5442
rfingers 7.12502
rthumb 4.03846 -55.4857
lclavicle -2.17918e-014 -1.19271e-015
lhumerus -9.98527 -20.5302 91.1232
lradius 75.6988
lwrist 10.7035
lhand -31.2759 -33.69
lfingers 7.12502
lthumb -4.54959 -3.75882
rfemur -5.50903 24.9797 25.6694
rtibia 2.11285
rfoot -12.7281 -25.5946
rtoes 1.44505
lfemur 8.40944 -54.0589 -13.9557
ltibia -5.37655
lfoot -48.1613 59.5986
ltoes 25.5101
1699
root 0.558364 17.5116 9.48332 12.0008 -3.75053 -9.72496
lowerback 1.50861 0.778129 6.73837
upperback -6.86706 1.5748 2.16918
thorax -7.97051 0.420455 -1.60808
lowerneck -15.4019 -3.74464 -1.80899
upperneck 24.6692 -6.76617 6.97703
head 10.811 -2.44161 1.86895
rclavicle 1.32192e-014 -1.86858e-014
rhumerus 4.08565 31.9272 -83.6563
rradius 70.0565
rwrist 28.7313
rhand -24.2855 -27.9481
rfingers 7.12502
rthumb 2.20162 -57.9165
lclavicle 1.32192e-014 -1.86858e-014
lhumerus -11.4549 -19.995 91.7409
lradius 77.0977
lwrist 9.64139
lhand -31.6296 -34.012
lfingers 7.12502
lthumb -4.89112 -4.08848
rfemur -5.76038 24.8369 25.5377
rtibia 2.17036
rfoot -12.6031 -25.2552
rtoes 1.09325
lfemur 8.22946 -54.015 -13.8624
ltibia -5.31187
lfoot -48.9221 59.3702
ltoes 26.3193
1700
root 0.567758 17.5028 9.48364 12.3068 -3.97999 -9.77056
lowerback 1.23117 0.872353 6.9228
upperback -6.95195 1.68924 2.15659
thorax -7.88937 0.465293 -1.72755
lowerneck -15.093 -3.7615 -1.70335
upperneck 24.3454 -6.71326 6.70077
head 10.6121 -2.45683 1.76113
rclavicle 4.70871e-015 1.07344e-014
rhumerus 4.32457 31.5436 -83.5682
rradius 70.0539
rwrist 28.6332
rhand -25.6195 -31.0213
rfingers 7.12502
rthumb 0.913229 -60.999
lclavicle 4.70871e-015 1.07344e-014
lhumerus -12.8925 -19.4506 92.3368
lradius 78.27
lwrist 8.48702
lhand -31.9194 -34.3955
lfingers 7.12502
lthumb -5.17095 -4.47864
rfemur -6.23567 24.5412 25.3493
rtibia 2.2826
rfoot -12.4496 -24.7343
rtoes 0.791059
lfemur 7.67772 -53.8839 -13.4562
ltibia -5.17636
lfoot -49.5575 59.0942
ltoes 26.9851
1701
root 0.571169 17.5004 9.49055 12.3338 -4.17396 -9.77218
lowerback 1.13799 0.954902 6.97617
upperback -6.96455 1.79441 2.1537
thorax -7.8392 0.514884 -1.76628
lowerneck -14.7245 -3.80455 -1.64245
upperneck 23.9975 -6.69282 6.45363
head 10.399 -2.48896 1.66889
rclavicle 8.33653e-015 3.97569e-015
rhumerus 4.54732 31.0898 -83.3903
rradius 70.1203
rwrist 28.375
rhand -25.9426 -34.2873
rfingers 7.12502
rthumb 0.601184 -64.2662
lclavicle 8.33653e-015 3.97569e-015
lhumerus -14.4627 -18.8596 92.9584
lradius 79.2975
lwrist 7.51587
lhand -32.1458 -34.869
lfingers 7.12502
lthumb -5.3895 -4.95752
rfemur -6.20621 24.6293 25.3258
rtibia 2.23437
rfoot -12.4274 -24.6407
rtoes 0.785609
lfemur 7.84536 -53.9483 -13.6567
ltibia -5.13548
lfoot -50.19 59.0665
ltoes 27.289
1702
root 0.568827 17.5036 9.50422 12.1363 -4.31414 -9.7199
lowerback 1.18525 1.00098 6.89048
upperback -6.92143 1.85463 2.16945
thorax -7.81637 0.552164 -1.70765
lowerneck -14.2721 -3.88859 -1.7179
upperneck 23.6423 -6.72814 6.32433
head 10.1809 -2.54693 1.63639
rclavicle 1.08338e-014 9.93923e-015
rhumerus 4.76726 30.6064 -83.1803
rradius 70.1891
rwrist 27.7228
rhand -25.2944 -36.9599
rfingers 7.12502
rthumb 1.22724 -66.9361
lclavicle 1.08338e-014 9.93923e-015
lhumerus -16.1732 -18.2074 93.572
lradius 80.1998
lwrist 6.85907
lhand -32.2382 -35.2532
lfingers 7.12502
lthumb -5.47868 -5.34401
rfemur -5.76143 25.0511 25.4186
rtibia 2.03283
rfoot -12.5016 -24.9368
rtoes 1.0079
lfemur 8.6132 -54.265 -14.3836
ltibia -5.16149
lfoot -50.9029 59.3148
ltoes 27.3305
1703
root 0.568826 17.5035 9.51416 12.0656 -4.41383 -9.68119
lowerback 1.15573 1.04428 6.85652
upperback -6.92633 1.90982 2.19104
thorax -7.80122 0.582724 -1.66957
lowerneck -13.7023 -3.98951 -1.86409
upperneck 23.2027 -6.78046 6.25232
head 9.91747 -2.61666 1.63644
rclavicle 1.95679e-014 -8.34896e-015
rhumerus 5.02693 30.158 -82.9063
rradius 70.0942
rwrist 26.7857
rhand -24.385 -38.7845
rfingers 7.12502
rthumb 2.10549 -68.7539
lclavicle 1.95679e-014 -8.34896e-015
lhumerus -17.8927 -17.5233 94.1229
lradius 80.8858
lwrist 6.45287
lhand -32.2364 -35.5656
lfingers 7.12502
lthumb -5.477 -5.65642
rfemur -5.57689 25.1514 25.4206
rtibia 1.91088
rfoot -12.4675 -24.967
rtoes 1.06031
lfemur 8.91587 -54.3361 -14.7018
ltibia -5.15963
lfoot -51.0317 59.49
ltoes 27.1404
1704
root 0.570621 17.5043 9.51956 12.0014 -4.43509 -9.63384
lowerback 1.1673 1.05035 6.84155
upperback -6.93505 1.92071 2.21997
thorax -7.81797 0.589433 -1.63186
lowerneck -13.2353 -4.05832 -2.10375
upperneck 22.8425 -6.80164 6.28732
head 9.71039 -2.66306 1.69289
rclavicle -1.74931e-014 -9.34288e-015
rhumerus 5.29052 29.7023 -82.6236
rradius 69.9698
rwrist 26.0634
rhand -23.327 -40.2684
rfingers 7.12502
rthumb 3.1273 -70.2252
lclavicle -1.74931e-014 -9.34288e-015
lhumerus -19.5602 -16.8049 94.5723
lradius 81.3209
lwrist 6.09129
lhand -32.244 -36.0574
lfingers 7.12502
lthumb -5.48434 -6.14832
rfemur -5.06852 27.7644 25.6034
rtibia 1.65574
rfoot -13.2838 -27.3381
rtoes 3.08324
lfemur 8.96553 -54.1624 -14.8112
ltibia -5.12656
lfoot -50.5984 59.4533
ltoes 26.9038
